<?xml version="1.0" encoding="UTF-8" standalone="no"?>
<!-- Generator: Adobe Illustrator 17.0.0, SVG Export Plug-In . SVG Version: 6.00 Build 0)  -->

<svg
   xmlns:dc="http://purl.org/dc/elements/1.1/"
   xmlns:cc="http://creativecommons.org/ns#"
   xmlns:rdf="http://www.w3.org/1999/02/22-rdf-syntax-ns#"
   xmlns:svg="http://www.w3.org/2000/svg"
   xmlns="http://www.w3.org/2000/svg"
   xmlns:sodipodi="http://sodipodi.sourceforge.net/DTD/sodipodi-0.dtd"
   xmlns:inkscape="http://www.inkscape.org/namespaces/inkscape"
   version="1.1"
   id="Calque_1"
   x="0px"
   y="0px"
   width="256"
   height="256"
   viewBox="0 0 256 256"
   enable-background="new 0 0 455 512"
   xml:space="preserve"
   sodipodi:docname="favicon.svg"
   inkscape:version="0.92.3 (2405546, 2018-03-11)"
   inkscape:export-filename="C:\Users\Bastien\Documents\WebProjects\WEB_SIO\2021-2022\Webservice\client\images\favicon.png"
   inkscape:export-xdpi="96"
   inkscape:export-ydpi="96"><metadata
   id="metadata77"><rdf:RDF><cc:Work
       rdf:about=""><dc:format>image/svg+xml</dc:format><dc:type
         rdf:resource="http://purl.org/dc/dcmitype/StillImage" /><dc:title></dc:title></cc:Work></rdf:RDF></metadata><defs
   id="defs75">
	
	
	
	

		
		
	
		
			
		
			
		
			
		
			
		
			
		
			
		
			
		
			
	
		
		
		
		
	<filter
   style="color-interpolation-filters:sRGB"
   inkscape:label="Lightness-Contrast"
   id="filter1059"><feColorMatrix
     values="1.573 0 0 0.12731 -0.2865 0 1.573 0 0.12731 -0.2865 0 0 1.573 0.12731 -0.2865 0 0 0 1 0"
     id="feColorMatrix1057" /></filter><filter
   style="color-interpolation-filters:sRGB"
   inkscape:label="Lightness-Contrast"
   id="filter1059-6"><feColorMatrix
     values="1.573 0 0 0.12731 -0.2865 0 1.573 0 0.12731 -0.2865 0 0 1.573 0.12731 -0.2865 0 0 0 1 0"
     id="feColorMatrix1057-5" /></filter></defs><sodipodi:namedview
   pagecolor="#ffffff"
   bordercolor="#666666"
   borderopacity="1"
   objecttolerance="1"
   gridtolerance="1"
   guidetolerance="1"
   inkscape:pageopacity="0"
   inkscape:pageshadow="2"
   inkscape:window-width="1920"
   inkscape:window-height="1017"
   id="namedview73"
   showgrid="false"
   inkscape:zoom="1.7690639"
   inkscape:cx="216.15821"
   inkscape:cy="98.050943"
   inkscape:window-x="-8"
   inkscape:window-y="-8"
   inkscape:window-maximized="1"
   inkscape:current-layer="layer2"
   fit-margin-top="0"
   fit-margin-left="0"
   fit-margin-right="0"
   fit-margin-bottom="0" />


<g
   id="g42"
   transform="translate(508.95681,-46.51568)">
</g>
<g
   id="g44"
   transform="translate(508.95681,-46.51568)">
</g>
<g
   id="g46"
   transform="translate(508.95681,-46.51568)">
</g>
<g
   id="g48"
   transform="translate(508.95681,-46.51568)">
</g>
<g
   id="g50"
   transform="translate(508.95681,-46.51568)">
</g>
<g
   id="g52"
   transform="translate(508.95681,-46.51568)">
</g>
<g
   id="g54"
   transform="translate(508.95681,-46.51568)">
</g>
<g
   id="g56"
   transform="translate(508.95681,-46.51568)">
</g>
<g
   id="g58"
   transform="translate(508.95681,-46.51568)">
</g>
<g
   id="g60"
   transform="translate(508.95681,-46.51568)">
</g>
<g
   id="g62"
   transform="translate(508.95681,-46.51568)">
</g>
<g
   id="g64"
   transform="translate(508.95681,-46.51568)">
</g>
<g
   id="g66"
   transform="translate(508.95681,-46.51568)">
</g>
<g
   id="g68"
   transform="translate(508.95681,-46.51568)">
</g>
<g
   id="g70"
   transform="translate(508.95681,-46.51568)">
</g>
<g
   inkscape:groupmode="layer"
   id="layer1"
   inkscape:label="Background"
   transform="translate(539.771,15.23478)"
   style="display:inline" /><g
   inkscape:groupmode="layer"
   id="layer2"
   inkscape:label="Calque"
   style="display:inline"
   transform="translate(539.771,15.23478)"><path
     style="fill:#41cae7;fill-opacity:1;stroke-width:0.62592477"
     d="m -488.49358,189.93286 c -6.03459,-0.65404 -10.93755,-2.15335 -16.52688,-5.05394 -24.75441,-12.84627 -32.77467,-44.14543 -17.28324,-67.44786 4.6447,-6.98666 12.78509,-13.78379 20.10627,-16.78853 1.83117,-0.751572 2.70488,-1.451252 2.49681,-1.999612 -0.91251,-2.404988 -1.65728,-10.26382 -1.30165,-13.735014 2.37,-23.132573 23.62258,-39.537344 46.05581,-35.550238 7.13349,1.267849 14.43983,4.913638 19.69042,9.825299 l 4.00184,3.743508 2.60208,-5.001525 c 7.14054,-13.724967 21.28496,-24.655909 36.57272,-28.263673 8.05349,-1.900543 18.03759,-1.797371 26.128,0.269983 21.31488,5.446674 37.75599,23.090025 41.49461,44.52892 1.34341,7.703787 1.12855,16.192146 -0.57808,22.835507 -0.36464,1.419363 -0.12313,1.664743 2.59956,2.640063 10.39808,3.725042 21.21609,13.971162 25.87796,24.510092 3.89836,8.81287 4.92572,21.29581 2.51962,30.6144 -4.17842,16.18246 -17.05326,29.10108 -33.66657,33.78104 l -4.87389,1.37298 -75.73688,0.10001 c -41.65529,0.0549 -77.73561,-0.11675 -80.17851,-0.38139 z"
     id="path857"
     inkscape:connector-curvature="0"
     sodipodi:nodetypes="ccscsccsccsscccscccscc" /><path
     sodipodi:nodetypes="scssscccccccscsscccccccsccss"
     inkscape:connector-curvature="0"
     id="path859"
     d="m -387.16722,155.75102 c 8.68414,-5.3919 16.16287,-10.14755 16.61946,-10.56811 0.66929,-0.61652 -2.50363,-2.84313 -16.37594,-11.49177 -9.46335,-5.8999 -17.37151,-10.72712 -17.57366,-10.72712 -0.20214,0 -0.36754,3.23918 -0.36754,7.19814 v 7.19814 h -24.72402 -24.724 v 7.5111 7.51109 h 24.724 24.72402 v 6.95217 c 0,5.97201 0.13445,6.90049 0.95419,6.58595 0.5248,-0.20144 8.05937,-4.77771 16.74349,-10.16959 z m -31.46802,-36.8555 v -7.19815 h 24.41107 24.41107 v -7.19812 -7.198135 h -24.41107 -24.41107 v -7.244023 c 0,-5.900966 -0.16299,-7.20652 -0.87963,-7.041643 -1.60733,0.369787 -34.12489,20.846731 -34.11649,21.483801 0.007,0.62534 33.48291,21.59441 34.4729,21.59441 0.28777,0 0.52322,-3.23916 0.52322,-7.19814 z"
     style="fill:#ffffff;fill-opacity:1;stroke-width:0.62592477" /></g></svg>